# xmcd
#
# Track frame offsets:
#	150
#	20826
#	40179
#	62473
#	79997
#	96598
#	119037
#	134184
#	157585
#	173010
#	188435
#	209679
#	226664
#	247969
#
# Disc length: 3504 seconds
#
# Revision: 1
# Processed by: cddbd v1.5.2PL0 Copyright (c) Steve Scherf et al.
# Submitted via: audiograbber 1.83.01
#
DISCID=bc0dae0e
DTITLE=Trisha Yearwood -  Big Bang Concert Series (Live)
DYEAR=2017
DGENRE=Country
TTITLE0=Under The Rainbow (Live)
TTITLE1=The Song Remembers When (Live)
TTITLE2=She's In Love With The Boy (Live)
TTITLE3=I Need You (Live)
TTITLE4=Thinking About You (Live)
TTITLE5=On A Bus To St. Cloud (Live)
TTITLE6=X's And O's (Live)
TTITLE7=Little Hercules (Live)
TTITLE8=Nearest Distant Shore (Live)
TTITLE9=Wrong Side Of Memphis (Live)
TTITLE10=Walkaway Joe (Live)
TTITLE11=Believe Me Baby (Live)
TTITLE12=Midnight Train To Georgia (Live)
TTITLE13=Somewhere Over The Rainbow (Live)
EXTD=
EXTT0=
EXTT1=
EXTT2=
EXTT3=
EXTT4=
EXTT5=
EXTT6=
EXTT7=
EXTT8=
EXTT9=
EXTT10=
EXTT11=
EXTT12=
EXTT13=
PLAYORDER=
